<?xml version="1.0" standalone="no"?><!DOCTYPE svg PUBLIC "-//W3C//DTD SVG 1.1//EN" "http://www.w3.org/Graphics/SVG/1.1/DTD/svg11.dtd"><svg t="1769583281941" class="icon" viewBox="0 0 1024 1024" version="1.1" xmlns="http://www.w3.org/2000/svg" p-id="7234" xmlns:xlink="http://www.w3.org/1999/xlink" width="200" height="200"><path d="M9.489067 100.420267v154.0096H935.936s-105.813333-151.620267-305.595733-154.0096zM851.729067 434.8928c2.798933 0 6.382933 41.233067 6.621866 43.9296A307.2 307.2 0 0 1 850.261333 580.266667c-26.5216 101.853867-125.8496 175.581867-230.843733 179.131733-19.114667 0.648533-270.609067 0.341333-270.609067 0.375467v163.6352h250.743467c80.520533 0 155.101867-14.779733 225.041067-56.2176 63.488-37.546667 117.4528-92.16 151.620266-157.7984 4.744533-9.1136 9.1136-18.432 13.038934-27.9552 34.133333-82.261333 36.0448-159.607467 26.112-246.510934z" p-id="7235" fill="#d4237a"></path><path d="M686.353067 510.702933A87.586133 87.586133 0 0 0 663.552 450.56c-21.572267-22.664533-51.950933-19.592533-80.554667-19.626667h-57.719466l-156.4672-0.238933-170.666667-0.238933-135.850667-0.375467H9.489067v500.5312h164.864l-2.423467-339.319467h79.530667l170.018133-0.341333 157.832533-0.3072c27.306667 0 56.046933 4.642133 78.506667-14.165333 18.944-16.145067 28.535467-41.2672 28.535467-65.774934z" p-id="7236" fill="#d4237a"></path></svg>